<svg id="Layer_1" height="512" viewBox="0 0 128 128" width="512" xmlns="http://www.w3.org/2000/svg" data-name="Layer 1"><path d="m6.5 44.096h115v39.808h-115z" fill="#fb4a59"/><g fill="#f2f2f2"><path d="m58.131 71.343v3.648h-15.263v-21.982h3.968v18.334z"/><path d="m61.428 53.009h3.972v21.982h-3.972z"/><path d="m91.186 53.009-9.186 21.982h-4.445l-9.184-21.982h4.416l6.976 16.671 6.976-16.671z"/><path d="m98.1 56.657v5.312h11.359v3.647h-11.359v5.728h12.543v3.648h-16.543v-21.983h16.543v3.648z"/><circle cx="24.192" cy="64" r="6"/></g><path d="m31.942 64a7.75 7.75 0 1 0 -7.75 7.75 7.759 7.759 0 0 0 7.75-7.75zm-12 0a4.25 4.25 0 1 1 4.25 4.25 4.255 4.255 0 0 1 -4.25-4.25z" fill="#12304c"/><path d="m99 82.154h-5.5a1.75 1.75 0 0 0 0 3.5h5.5a1.75 1.75 0 0 0 0-3.5z" fill="#12304c"/><path d="m121.5 42.346h-115a1.75 1.75 0 0 0 -1.75 1.754v13.025a1.75 1.75 0 0 0 3.5 0v-11.279h111.5v36.308h-12.375a1.75 1.75 0 0 0 0 3.5h14.125a1.75 1.75 0 0 0 1.75-1.75v-39.804a1.75 1.75 0 0 0 -1.75-1.754z" fill="#12304c"/><path d="m84.5 82.154h-76.25v-16.279a1.75 1.75 0 0 0 -3.5 0v18.025a1.75 1.75 0 0 0 1.75 1.75h78a1.75 1.75 0 0 0 0-3.5z" fill="#12304c"/></svg>